<?xml version="1.0" encoding="UTF-8" standalone="no"?>
<!-- Created with Inkscape (http://www.inkscape.org/) -->

<svg
   width="120"
   height="120"
   viewBox="0 0 31.749999 31.75"
   version="1.1"
   id="svg213"
   inkscape:version="1.2 (dc2aedaf03, 2022-05-15)"
   sodipodi:docname="rdef_txt.svg"
   xmlns:inkscape="http://www.inkscape.org/namespaces/inkscape"
   xmlns:sodipodi="http://sodipodi.sourceforge.net/DTD/sodipodi-0.dtd"
   xmlns="http://www.w3.org/2000/svg"
   xmlns:svg="http://www.w3.org/2000/svg">
  <sodipodi:namedview
     id="namedview215"
     pagecolor="#ffffff"
     bordercolor="#666666"
     borderopacity="1.0"
     inkscape:showpageshadow="2"
     inkscape:pageopacity="0.0"
     inkscape:pagecheckerboard="0"
     inkscape:deskcolor="#d1d1d1"
     inkscape:document-units="mm"
     showgrid="false"
     inkscape:zoom="4.4195761"
     inkscape:cx="96.841867"
     inkscape:cy="63.354492"
     inkscape:window-width="2560"
     inkscape:window-height="1057"
     inkscape:window-x="-8"
     inkscape:window-y="-8"
     inkscape:window-maximized="1"
     inkscape:current-layer="layer1" />
  <defs
     id="defs210" />
  <g
     inkscape:label="Ebene 1"
     inkscape:groupmode="layer"
     id="layer1">
    <path
       id="path61"
       style="fill:#971b2f;fill-opacity:1;fill-rule:evenodd;stroke-width:0.264583"
       d="m 7.1061671,12.273023 a 5,5 0 0 0 -4.999694,5.000212 5,5 0 0 0 4.999694,4.999694 5,5 0 0 0 5.0002119,-4.999694 5,5 0 0 0 -5.0002119,-5.000212 z m 0.03979,0.600997 a 4.25,4.25 0 0 1 4.2498699,4.250386 4.25,4.25 0 0 1 -4.2498699,4.24987 4.25,4.25 0 0 1 -4.24987,-4.24987 4.25,4.25 0 0 1 4.24987,-4.250386 z"
       clip-path="none" />
    <path
       id="path61-6"
       style="fill:#971b2f;fill-opacity:1;fill-rule:evenodd;stroke-width:0.264583"
       d="m 21.496001,2.1023021 a 5,5 0 0 0 -4.999694,5.0002117 5,5 0 0 0 4.999694,4.9996952 5,5 0 0 0 5.000212,-4.9996952 5,5 0 0 0 -5.000212,-5.0002117 z m 0.03979,0.600997 a 4.25,4.25 0 0 1 4.24987,4.2503857 4.25,4.25 0 0 1 -4.24987,4.2498712 4.25,4.25 0 0 1 -4.24987,-4.2498712 4.25,4.25 0 0 1 4.24987,-4.2503857 z" />
    <ellipse
       style="fill:#971b2f;fill-opacity:1;fill-rule:evenodd;stroke-width:0.224507"
       id="path61-2"
       cx="23.061865"
       cy="23.844913"
       rx="4.5"
       ry="4" />
    <path
       style="fill:#971b2f;fill-opacity:1;fill-rule:evenodd;stroke-width:0.238126"
       d="M 22.562588,5.0517571 20.41905,8.5047758 21.5673,19.502556 a 4.5,4.5 0 0 1 1.515153,-0.266134 4.5,4.5 0 0 1 0.973067,0.10697 z"
       id="path61-2-11" />
    <ellipse
       style="fill:#971b2f;fill-opacity:1;fill-rule:evenodd;stroke-width:0.224507"
       id="path61-2-1"
       clip-path="none"
       ry="4"
       rx="4.5"
       cy="17.578844"
       cx="7.0385671" />
    <path
       style="fill:#971b2f;fill-opacity:1;fill-rule:evenodd;stroke-width:0.238126"
       d="M 20.031993,7.5435948 10.39899,14.102369 a 4.5,4.5 0 0 1 0.977201,1.877404 l 9.885185,-6.7298222 z"
       id="path61-2-1-4" />
    <ellipse
       style="fill:#971b2f;fill-opacity:1;fill-rule:evenodd;stroke-width:0.224507"
       id="path61-2-1-1"
       cx="21.466328"
       cy="7.3417192"
       rx="4.5"
       ry="4" />
    <ellipse
       style="fill:#ff0000;fill-opacity:0;fill-rule:evenodd;stroke-width:0.343428"
       id="path1721"
       cx="-10.510114"
       cy="-0.63912666"
       rx="5.8417902"
       ry="4.2079186"
       transform="matrix(1,0,-0.80480291,0.59354214,0,0)" />
    <rect
       style="fill:#ff0000;fill-opacity:0;stroke-width:0.264583"
       id="rect3813"
       width="14.054162"
       height="3.7251995"
       x="-15.498877"
       y="27.263325" />
    <rect
       style="fill:#ff0000;fill-opacity:0;stroke-width:0.264583"
       id="rect3815"
       width="0.33865452"
       height="2.3705816"
       x="-7.6251607"
       y="31.157848" />
    <rect
       style="fill:#ff0000;fill-opacity:0;stroke-width:0.264583"
       id="rect3817"
       width="15.239452"
       height="6.9424162"
       x="-15.244887"
       y="26.332024" />
    <rect
       style="fill:#ff0000;fill-opacity:0;stroke-width:0.264583"
       id="rect3819"
       width="15.239453"
       height="7.6197252"
       x="-16.260849"
       y="25.908707" />
    <rect
       style="fill:#ff0000;fill-opacity:0;stroke-width:0.264583"
       id="rect3821"
       width="17.52537"
       height="7.8737173"
       x="-17.276814"
       y="25.316059" />
    <path
       id="path61-7"
       style="fill:#971b2f;fill-opacity:1;fill-rule:evenodd;stroke-width:0.264583"
       d="m 23.052522,18.71518 a 5,5 0 0 0 -4.999694,5.000213 5,5 0 0 0 4.999694,4.999693 5,5 0 0 0 5.000212,-4.999693 5,5 0 0 0 -5.000212,-5.000213 z m 0.03979,0.600997 a 4.25,4.25 0 0 1 4.24987,4.250386 4.25,4.25 0 0 1 -4.24987,4.24987 4.25,4.25 0 0 1 -4.24987,-4.24987 4.25,4.25 0 0 1 4.24987,-4.250386 z" />
    <rect
       style="fill:#971b2f;fill-opacity:1;stroke-width:0.293723;stroke-dasharray:none"
       id="rect6324-8"
       width="17.713387"
       height="2.1498575"
       x="19.244267"
       y="-14.409309"
       ry="0"
       transform="matrix(0.90180627,0.43214054,0.71515308,-0.69896787,0,0)" />
    <text
       xml:space="preserve"
       style="font-style:normal;font-weight:normal;font-size:11.1116px;line-height:1.25;font-family:sans-serif;fill:#000000;fill-opacity:1;stroke:none;stroke-width:0.277789"
       x="1.4036617"
       y="22.061333"
       id="text675-9"
       transform="scale(0.95245743,1.0499157)"><tspan
         sodipodi:role="line"
         id="tspan673-7"
         style="font-style:italic;font-variant:normal;font-weight:600;font-stretch:normal;font-size:11.1116px;font-family:'Lucida Bright';-inkscape-font-specification:'Lucida Bright, Semi-Bold Italic';font-variant-ligatures:normal;font-variant-caps:normal;font-variant-numeric:normal;font-variant-east-asian:normal;fill:#000000;fill-opacity:1;stroke-width:0.277789"
         x="1.4036617"
         y="22.061333">RDeF</tspan></text>
    <text
       xml:space="preserve"
       style="font-style:normal;font-weight:normal;font-size:10.757px;line-height:1.25;font-family:sans-serif;fill:#8c9fb1;fill-opacity:1;stroke:none;stroke-width:0.268923"
       x="1.6163017"
       y="22.203926"
       id="text675"
       transform="scale(0.96696694,1.0341615)"><tspan
         sodipodi:role="line"
         id="tspan673"
         style="font-style:italic;font-variant:normal;font-weight:600;font-stretch:normal;font-size:10.757px;font-family:'Lucida Bright';-inkscape-font-specification:'Lucida Bright, Semi-Bold Italic';font-variant-ligatures:normal;font-variant-caps:normal;font-variant-numeric:normal;font-variant-east-asian:normal;fill:#8c9fb1;fill-opacity:1;stroke-width:0.268923"
         x="1.6163017"
         y="22.203926">RDeF</tspan></text>
  </g>
</svg>
